<svg xmlns="http://www.w3.org/2000/svg" xmlns:xlink="http://www.w3.org/1999/xlink" width="301" height="86" version="1.1" viewBox="0 0 301 86"><title>Group 19</title><g id="Page-1" fill="none" fill-rule="evenodd" stroke="none" stroke-width="1"><g id="Artboard-Copy-2" transform="translate(-674.000000, -2479.000000)"><g id="Group-19" transform="translate(674.221629, 2479.135175)"><g id="Group-3" transform="translate(23.340909, 0.000000)"><polygon id="Fill-1" fill="#F57474" points="6.919 31.441 14.823 79.968 261.848 84.918 275.551 11.314"/><polygon id="Fill-2" fill="#FFC91E" points="268.073 0 0 26.551 9.063 74.875 256.135 73.911"/></g><g id="Group-9" fill="#000" transform="translate(0.000000, 25.564655)"><polygon id="Fill-1" points="40.39 24.431 34.357 18.398 28.81 23.223 26.437 20.494 34.53 13.457 40.358 19.285 44.862 14.666 47.451 17.19"/><polygon id="Fill-2" points="0 32.486 2.373 35.214 7.92 30.39 13.953 36.423 21.014 29.182 18.426 26.658 13.921 31.277 8.093 25.449"/><polygon id="Fill-3" points="15.402 0 8.341 7.241 10.93 9.766 15.434 5.146 21.262 10.974 29.355 3.937 26.982 1.209 21.434 6.033"/><polygon id="Fill-4" points="17.608 46.215 20.197 48.74 24.7 44.12 30.529 49.948 38.622 42.911 36.249 40.183 30.701 45.007 24.668 38.974"/><polygon id="Fill-5" points="39.846 8.703 38.84 5.23 49.197 2.232 50.203 5.705"/><polygon id="Fill-6" points="4.245 20.63 15.026 20.63 15.026 17.014 4.245 17.014"/><polygon id="Fill-7" points="45.427 27.624 47.983 30.181 55.608 22.557 53.051 20"/><polygon id="Fill-8" points="38.778 36.122 28.76 32.137 30.096 28.777 40.115 32.762"/></g></g></g></g></svg>