<svg xmlns="http://www.w3.org/2000/svg" xmlns:xlink="http://www.w3.org/1999/xlink" width="47" height="48" version="1.1" viewBox="0 0 47 48"><title>Group 22</title><defs><polygon id="path-1" points=".005 .028 15.832 .028 15.832 16.789 .005 16.789"/><polygon id="path-3" points="0 24.49 24.49 24.49 24.49 0 0 0"/></defs><g id="Page-1" fill="none" fill-rule="evenodd" stroke="none" stroke-width="1"><g id="Artboard-Copy-2" transform="translate(-114.000000, -156.000000)"><g id="Group-22" transform="translate(114.000000, 156.500000)"><polygon id="Path-5" fill="#FFF" points="0 7.008 7 0 46.321 0 46.321 39.321 39.321 46.321 0 46.321"/><g id="Group-4" transform="translate(7.000000, 0.000000)"><rect id="Rectangle-Copy-3" width="39.321" height="39.321" x="0" y="0" fill="#000"/><g id="Group-7" transform="translate(7.007653, 7.007653)"><g id="Group-3" transform="translate(8.657526, 7.700893)"><mask id="mask-2" fill="#fff"><use xlink:href="#path-1"/></mask><path id="Fill-1" fill="#FFF" d="M15.8261527,16.7888983 L15.8261527,16.7878938 L15.8322752,16.7878938 L15.8322752,7.80626116 C15.8322752,3.41235172 14.8863568,0.0276897321 9.74962213,0.0276897321 C7.28021843,0.0276897321 5.62309152,1.38275989 4.94656091,2.66746971 L4.87514828,2.66746971 L4.87514828,0.437893814 L0.0047401148,0.437893814 L0.0047401148,16.7878938 L5.0761368,16.7878938 L5.0761368,8.6919595 C5.0761368,6.56029496 5.48021843,4.49913425 8.12004624,4.49913425 C10.7210826,4.49913425 10.7598262,6.93175542 10.7598262,8.82871014 L10.7598262,16.7888983 L15.8261527,16.7888983 Z" mask="url(#mask-2)"/></g><mask id="mask-4" fill="#fff"><use xlink:href="#path-3"/></mask><polygon id="Fill-4" fill="#FFF" points=".404 24.49 5.482 24.49 5.482 8.14 .404 8.14" mask="url(#mask-4)"/><path id="Fill-6" fill="#FFF" d="M2.94082749,-4.78316326e-06 C1.31737404,-4.78316326e-06 -4.78316327e-06,1.31737404 -4.78316327e-06,2.94082749 C-4.78316327e-06,4.56428093 1.31737404,5.90921078 2.94082749,5.90921078 C4.56428093,5.90921078 5.88161193,4.56428093 5.88161193,2.94082749 C5.88060746,1.31737404 4.56327647,-4.78316326e-06 2.94082749,-4.78316326e-06" mask="url(#mask-4)"/></g></g></g></g></g></svg>